<mxfile host="Electron" modified="2024-01-26T04:35:46.009Z" agent="Mozilla/5.0 (X11; Linux x86_64) AppleWebKit/537.36 (KHTML, like Gecko) draw.io/22.1.21 Chrome/120.0.6099.109 Electron/28.1.0 Safari/537.36" etag="eXQNIk7Rbv1G9cQRlrC_" version="22.1.21" type="device">
  <diagram name="Page-1" id="7OE1b7Uu5r0MGAWNPxCC">
    <mxGraphModel dx="309" dy="584" grid="1" gridSize="10" guides="1" tooltips="1" connect="1" arrows="1" fold="1" page="1" pageScale="1" pageWidth="850" pageHeight="1100" math="0" shadow="0">
      <root>
        <mxCell id="0" />
        <mxCell id="1" parent="0" />
        <mxCell id="3HYA0RFDNEXXnuTM22ZK-10" style="edgeStyle=orthogonalEdgeStyle;rounded=0;orthogonalLoop=1;jettySize=auto;html=1;exitX=0.5;exitY=1;exitDx=0;exitDy=0;" edge="1" parent="1" source="3HYA0RFDNEXXnuTM22ZK-1" target="3HYA0RFDNEXXnuTM22ZK-8">
          <mxGeometry relative="1" as="geometry" />
        </mxCell>
        <mxCell id="3HYA0RFDNEXXnuTM22ZK-1" value="supabase S3 JSON&lt;br&gt;of processed Data" style="rounded=0;whiteSpace=wrap;html=1;" vertex="1" parent="1">
          <mxGeometry x="390" y="210" width="120" height="60" as="geometry" />
        </mxCell>
        <mxCell id="3HYA0RFDNEXXnuTM22ZK-7" style="edgeStyle=orthogonalEdgeStyle;rounded=0;orthogonalLoop=1;jettySize=auto;html=1;exitX=1;exitY=0.5;exitDx=0;exitDy=0;" edge="1" parent="1" source="3HYA0RFDNEXXnuTM22ZK-2" target="3HYA0RFDNEXXnuTM22ZK-1">
          <mxGeometry relative="1" as="geometry" />
        </mxCell>
        <mxCell id="3HYA0RFDNEXXnuTM22ZK-2" value="python script" style="rounded=0;whiteSpace=wrap;html=1;" vertex="1" parent="1">
          <mxGeometry x="170" y="210" width="120" height="60" as="geometry" />
        </mxCell>
        <mxCell id="3HYA0RFDNEXXnuTM22ZK-5" style="edgeStyle=orthogonalEdgeStyle;rounded=0;orthogonalLoop=1;jettySize=auto;html=1;exitX=0.5;exitY=1;exitDx=0;exitDy=0;entryX=0.5;entryY=0;entryDx=0;entryDy=0;" edge="1" parent="1" source="3HYA0RFDNEXXnuTM22ZK-3" target="3HYA0RFDNEXXnuTM22ZK-2">
          <mxGeometry relative="1" as="geometry" />
        </mxCell>
        <mxCell id="3HYA0RFDNEXXnuTM22ZK-6" value="webscraping a few times a day" style="edgeLabel;html=1;align=center;verticalAlign=middle;resizable=0;points=[];" vertex="1" connectable="0" parent="3HYA0RFDNEXXnuTM22ZK-5">
          <mxGeometry x="0.2444" y="4" relative="1" as="geometry">
            <mxPoint as="offset" />
          </mxGeometry>
        </mxCell>
        <mxCell id="3HYA0RFDNEXXnuTM22ZK-3" value="masteringRuneterra" style="rounded=0;whiteSpace=wrap;html=1;" vertex="1" parent="1">
          <mxGeometry x="170" y="60" width="120" height="60" as="geometry" />
        </mxCell>
        <mxCell id="3HYA0RFDNEXXnuTM22ZK-14" style="edgeStyle=orthogonalEdgeStyle;rounded=0;orthogonalLoop=1;jettySize=auto;html=1;exitX=1;exitY=0.75;exitDx=0;exitDy=0;entryX=0;entryY=0.75;entryDx=0;entryDy=0;" edge="1" parent="1" source="3HYA0RFDNEXXnuTM22ZK-8" target="3HYA0RFDNEXXnuTM22ZK-9">
          <mxGeometry relative="1" as="geometry" />
        </mxCell>
        <mxCell id="3HYA0RFDNEXXnuTM22ZK-8" value="backend" style="rounded=0;whiteSpace=wrap;html=1;" vertex="1" parent="1">
          <mxGeometry x="390" y="340" width="120" height="60" as="geometry" />
        </mxCell>
        <mxCell id="3HYA0RFDNEXXnuTM22ZK-13" style="edgeStyle=orthogonalEdgeStyle;rounded=0;orthogonalLoop=1;jettySize=auto;html=1;exitX=0;exitY=0.25;exitDx=0;exitDy=0;entryX=1;entryY=0.25;entryDx=0;entryDy=0;" edge="1" parent="1" source="3HYA0RFDNEXXnuTM22ZK-9" target="3HYA0RFDNEXXnuTM22ZK-8">
          <mxGeometry relative="1" as="geometry" />
        </mxCell>
        <mxCell id="3HYA0RFDNEXXnuTM22ZK-16" value="API" style="edgeLabel;html=1;align=center;verticalAlign=middle;resizable=0;points=[];" vertex="1" connectable="0" parent="3HYA0RFDNEXXnuTM22ZK-13">
          <mxGeometry x="0.2571" y="2" relative="1" as="geometry">
            <mxPoint x="14" y="13" as="offset" />
          </mxGeometry>
        </mxCell>
        <mxCell id="3HYA0RFDNEXXnuTM22ZK-9" value="client" style="rounded=0;whiteSpace=wrap;html=1;" vertex="1" parent="1">
          <mxGeometry x="580" y="340" width="120" height="60" as="geometry" />
        </mxCell>
        <mxCell id="3HYA0RFDNEXXnuTM22ZK-17" value="" style="endArrow=none;html=1;rounded=0;" edge="1" parent="1">
          <mxGeometry width="50" height="50" relative="1" as="geometry">
            <mxPoint x="40" y="520" as="sourcePoint" />
            <mxPoint x="840" y="520" as="targetPoint" />
          </mxGeometry>
        </mxCell>
        <mxCell id="3HYA0RFDNEXXnuTM22ZK-20" style="edgeStyle=orthogonalEdgeStyle;rounded=0;orthogonalLoop=1;jettySize=auto;html=1;entryX=0;entryY=0.5;entryDx=0;entryDy=0;" edge="1" parent="1" source="3HYA0RFDNEXXnuTM22ZK-19">
          <mxGeometry relative="1" as="geometry">
            <mxPoint x="320" y="820" as="targetPoint" />
          </mxGeometry>
        </mxCell>
        <mxCell id="3HYA0RFDNEXXnuTM22ZK-22" value="match history" style="edgeLabel;html=1;align=center;verticalAlign=middle;resizable=0;points=[];" vertex="1" connectable="0" parent="3HYA0RFDNEXXnuTM22ZK-20">
          <mxGeometry x="-0.0171" relative="1" as="geometry">
            <mxPoint as="offset" />
          </mxGeometry>
        </mxCell>
        <mxCell id="3HYA0RFDNEXXnuTM22ZK-19" value="spider+APIcalls" style="rounded=0;whiteSpace=wrap;html=1;" vertex="1" parent="1">
          <mxGeometry x="100" y="790" width="120" height="60" as="geometry" />
        </mxCell>
        <mxCell id="3HYA0RFDNEXXnuTM22ZK-29" style="edgeStyle=orthogonalEdgeStyle;rounded=0;orthogonalLoop=1;jettySize=auto;html=1;exitX=1;exitY=0.5;exitDx=0;exitDy=0;" edge="1" parent="1">
          <mxGeometry relative="1" as="geometry">
            <mxPoint x="560.0000000000002" y="810" as="sourcePoint" />
            <mxPoint x="650" y="810" as="targetPoint" />
          </mxGeometry>
        </mxCell>
        <mxCell id="3HYA0RFDNEXXnuTM22ZK-32" value="API" style="edgeLabel;html=1;align=center;verticalAlign=middle;resizable=0;points=[];" vertex="1" connectable="0" parent="3HYA0RFDNEXXnuTM22ZK-29">
          <mxGeometry x="-0.073" y="-1" relative="1" as="geometry">
            <mxPoint y="9" as="offset" />
          </mxGeometry>
        </mxCell>
        <mxCell id="3HYA0RFDNEXXnuTM22ZK-23" value="backend" style="rounded=0;whiteSpace=wrap;html=1;" vertex="1" parent="1">
          <mxGeometry x="440" y="790" width="120" height="60" as="geometry" />
        </mxCell>
        <mxCell id="3HYA0RFDNEXXnuTM22ZK-26" value="" style="shape=cylinder3;whiteSpace=wrap;html=1;boundedLbl=1;backgroundOutline=1;size=15;" vertex="1" parent="1">
          <mxGeometry x="320" y="780" width="60" height="80" as="geometry" />
        </mxCell>
        <mxCell id="3HYA0RFDNEXXnuTM22ZK-33" style="edgeStyle=orthogonalEdgeStyle;rounded=0;orthogonalLoop=1;jettySize=auto;html=1;exitX=0;exitY=0.75;exitDx=0;exitDy=0;entryX=1;entryY=0.75;entryDx=0;entryDy=0;" edge="1" parent="1" source="3HYA0RFDNEXXnuTM22ZK-28" target="3HYA0RFDNEXXnuTM22ZK-23">
          <mxGeometry relative="1" as="geometry" />
        </mxCell>
        <mxCell id="3HYA0RFDNEXXnuTM22ZK-28" value="client" style="rounded=0;whiteSpace=wrap;html=1;" vertex="1" parent="1">
          <mxGeometry x="650" y="790" width="120" height="60" as="geometry" />
        </mxCell>
        <mxCell id="3HYA0RFDNEXXnuTM22ZK-37" value="" style="endArrow=classic;html=1;rounded=0;entryX=0;entryY=0.5;entryDx=0;entryDy=0;" edge="1" parent="1" target="3HYA0RFDNEXXnuTM22ZK-23">
          <mxGeometry width="50" height="50" relative="1" as="geometry">
            <mxPoint x="380" y="820" as="sourcePoint" />
            <mxPoint x="430" y="770" as="targetPoint" />
          </mxGeometry>
        </mxCell>
      </root>
    </mxGraphModel>
  </diagram>
</mxfile>
